<svg xmlns="http://www.w3.org/2000/svg" width="512" height="512" viewBox="0 0 512 512" version="1.1">
	<path d="M 178.250 118.640 L 83 170.226 83.057 243.363 L 83.115 316.500 156.056 379.500 C 196.174 414.150, 230.043 443.315, 231.320 444.311 C 233.638 446.120, 233.809 446.028, 330.821 390.922 L 428 335.721 428 291.914 L 428 248.107 433.487 244.465 C 443.994 237.491, 452.160 226.387, 456.258 213.500 C 458.176 207.471, 458.485 204.280, 458.485 190.500 C 458.485 176.771, 458.171 173.507, 456.274 167.500 C 450.112 147.984, 434.952 133.478, 415.540 128.522 C 411.489 127.487, 404.761 127.004, 394.540 127.012 C 378.485 127.025, 373.197 127.932, 363.616 132.318 L 358.055 134.864 316.299 100.932 C 293.333 82.269, 274.309 67.012, 274.022 67.027 C 273.735 67.041, 230.637 90.267, 178.250 118.640 M 258.964 100.915 C 252.109 104.657, 236.918 112.897, 225.207 119.226 L 203.913 130.733 264.909 181.866 C 298.456 209.990, 326.382 233, 326.967 233 C 328.585 233, 339.134 226.849, 338.750 226.130 C 333.530 216.362, 331 204.733, 331 190.500 C 331 177.236, 333.150 166.637, 337.657 157.687 C 340.543 151.958, 340.926 150.516, 339.830 149.506 C 338.657 148.424, 275.104 96.908, 272.464 94.899 C 271.881 94.455, 265.977 97.085, 258.964 100.915 M 148.506 160.642 C 130.910 170.237, 116.166 178.434, 115.743 178.857 C 115.093 179.507, 233.589 282.917, 235.999 283.804 C 236.754 284.082, 302.475 247.764, 304.281 246.070 C 305.215 245.194, 183.564 142.957, 181.755 143.098 C 181.065 143.152, 166.103 151.047, 148.506 160.642 M 106 253.938 L 106 305.835 164.500 356.411 L 223 406.987 223 355.088 L 223 303.189 164.500 252.615 L 106 202.041 106 253.938 M 330.815 257.662 C 317.442 265.111, 292.887 278.850, 276.250 288.192 L 246 305.177 246 358.695 C 246 408.230, 246.124 412.166, 247.666 411.575 C 248.583 411.223, 284.358 391.041, 327.166 366.726 L 405 322.518 404.995 298.009 C 404.992 284.529, 404.699 269.113, 404.344 263.750 L 403.698 254 392.059 254 C 378.528 254, 371.402 252.481, 361.815 247.554 L 355.129 244.119 330.815 257.662" stroke="none" fill="black" fill-rule="evenodd"/>
</svg>